<mxfile host="app.diagrams.net" modified="2023-03-28T12:53:12.278Z" agent="Mozilla/5.0 (Windows NT 10.0; Win64; x64) AppleWebKit/537.36 (KHTML, like Gecko) Chrome/111.0.0.0 Safari/537.36" etag="3rdjZ6tONL2WlD0KwBBn" version="21.1.1" type="github">
  <diagram name="第1頁" id="izqqchvkeChoprTOHGF7">
    <mxGraphModel dx="625" dy="349" grid="1" gridSize="10" guides="1" tooltips="1" connect="1" arrows="1" fold="1" page="1" pageScale="1" pageWidth="827" pageHeight="1169" math="0" shadow="0">
      <root>
        <mxCell id="0" />
        <mxCell id="1" parent="0" />
        <mxCell id="hrECcgzoFhyZReoRY3EB-3" value="" style="edgeStyle=orthogonalEdgeStyle;rounded=0;orthogonalLoop=1;jettySize=auto;html=1;" edge="1" parent="1" source="0pe9_hopcAu_G4nnsLJK-1" target="hrECcgzoFhyZReoRY3EB-1">
          <mxGeometry relative="1" as="geometry" />
        </mxCell>
        <mxCell id="0pe9_hopcAu_G4nnsLJK-1" value="course" style="rounded=0;whiteSpace=wrap;html=1;" parent="1" vertex="1">
          <mxGeometry x="220" y="370" width="70" height="30" as="geometry" />
        </mxCell>
        <mxCell id="hrECcgzoFhyZReoRY3EB-2" value="" style="edgeStyle=orthogonalEdgeStyle;rounded=0;orthogonalLoop=1;jettySize=auto;html=1;" edge="1" parent="1" source="0pe9_hopcAu_G4nnsLJK-2" target="hrECcgzoFhyZReoRY3EB-1">
          <mxGeometry relative="1" as="geometry" />
        </mxCell>
        <mxCell id="0pe9_hopcAu_G4nnsLJK-2" value="teacher" style="rounded=0;whiteSpace=wrap;html=1;" parent="1" vertex="1">
          <mxGeometry x="520" y="370" width="70" height="30" as="geometry" />
        </mxCell>
        <mxCell id="0pe9_hopcAu_G4nnsLJK-8" value="" style="endArrow=none;html=1;rounded=0;exitX=0.5;exitY=0;exitDx=0;exitDy=0;" parent="1" source="0pe9_hopcAu_G4nnsLJK-1" target="0pe9_hopcAu_G4nnsLJK-9" edge="1">
          <mxGeometry width="50" height="50" relative="1" as="geometry">
            <mxPoint x="390" y="420" as="sourcePoint" />
            <mxPoint x="240" y="320" as="targetPoint" />
          </mxGeometry>
        </mxCell>
        <mxCell id="0pe9_hopcAu_G4nnsLJK-9" value="course id" style="ellipse;whiteSpace=wrap;html=1;" parent="1" vertex="1">
          <mxGeometry x="180" y="300" width="60" height="30" as="geometry" />
        </mxCell>
        <mxCell id="0pe9_hopcAu_G4nnsLJK-10" value="" style="endArrow=none;html=1;rounded=0;exitX=0.75;exitY=0;exitDx=0;exitDy=0;entryX=1;entryY=0.5;entryDx=0;entryDy=0;" parent="1" target="0pe9_hopcAu_G4nnsLJK-11" edge="1">
          <mxGeometry width="50" height="50" relative="1" as="geometry">
            <mxPoint x="272.5" y="370" as="sourcePoint" />
            <mxPoint x="300" y="310" as="targetPoint" />
          </mxGeometry>
        </mxCell>
        <mxCell id="0pe9_hopcAu_G4nnsLJK-11" value="title" style="ellipse;whiteSpace=wrap;html=1;" parent="1" vertex="1">
          <mxGeometry x="240" y="260" width="60" height="30" as="geometry" />
        </mxCell>
        <mxCell id="0pe9_hopcAu_G4nnsLJK-15" value="" style="endArrow=none;html=1;rounded=0;exitX=0.886;exitY=0;exitDx=0;exitDy=0;exitPerimeter=0;" parent="1" source="0pe9_hopcAu_G4nnsLJK-1" target="0pe9_hopcAu_G4nnsLJK-16" edge="1">
          <mxGeometry width="50" height="50" relative="1" as="geometry">
            <mxPoint x="290" y="360" as="sourcePoint" />
            <mxPoint x="364" y="300" as="targetPoint" />
          </mxGeometry>
        </mxCell>
        <mxCell id="0pe9_hopcAu_G4nnsLJK-16" value="taught by id" style="ellipse;whiteSpace=wrap;html=1;" parent="1" vertex="1">
          <mxGeometry x="304" y="280" width="76" height="30" as="geometry" />
        </mxCell>
        <mxCell id="0pe9_hopcAu_G4nnsLJK-17" value="" style="endArrow=none;html=1;rounded=0;exitX=0.25;exitY=0;exitDx=0;exitDy=0;" parent="1" source="0pe9_hopcAu_G4nnsLJK-2" target="0pe9_hopcAu_G4nnsLJK-18" edge="1">
          <mxGeometry width="50" height="50" relative="1" as="geometry">
            <mxPoint x="542" y="400" as="sourcePoint" />
            <mxPoint x="591" y="310" as="targetPoint" />
          </mxGeometry>
        </mxCell>
        <mxCell id="0pe9_hopcAu_G4nnsLJK-18" value="id" style="ellipse;whiteSpace=wrap;html=1;" parent="1" vertex="1">
          <mxGeometry x="531" y="290" width="76" height="30" as="geometry" />
        </mxCell>
        <mxCell id="0pe9_hopcAu_G4nnsLJK-20" value="" style="endArrow=none;html=1;rounded=0;exitX=0.75;exitY=0;exitDx=0;exitDy=0;" parent="1" target="0pe9_hopcAu_G4nnsLJK-21" edge="1">
          <mxGeometry width="50" height="50" relative="1" as="geometry">
            <mxPoint x="555" y="370" as="sourcePoint" />
            <mxPoint x="689.5" y="320" as="targetPoint" />
          </mxGeometry>
        </mxCell>
        <mxCell id="0pe9_hopcAu_G4nnsLJK-21" value="name" style="ellipse;whiteSpace=wrap;html=1;" parent="1" vertex="1">
          <mxGeometry x="629.5" y="300" width="76" height="30" as="geometry" />
        </mxCell>
        <mxCell id="0pe9_hopcAu_G4nnsLJK-22" value="" style="endArrow=none;html=1;rounded=0;" parent="1" target="0pe9_hopcAu_G4nnsLJK-23" edge="1">
          <mxGeometry width="50" height="50" relative="1" as="geometry">
            <mxPoint x="591" y="380" as="sourcePoint" />
            <mxPoint x="705.5" y="370" as="targetPoint" />
          </mxGeometry>
        </mxCell>
        <mxCell id="0pe9_hopcAu_G4nnsLJK-23" value="age" style="ellipse;whiteSpace=wrap;html=1;" parent="1" vertex="1">
          <mxGeometry x="645.5" y="350" width="76" height="30" as="geometry" />
        </mxCell>
        <mxCell id="hrECcgzoFhyZReoRY3EB-1" value="teach" style="rhombus;whiteSpace=wrap;html=1;" vertex="1" parent="1">
          <mxGeometry x="360" y="345" width="80" height="80" as="geometry" />
        </mxCell>
      </root>
    </mxGraphModel>
  </diagram>
</mxfile>
